<?xml version="1.0" encoding="UTF-8" standalone="no"?>
<svg
   xmlns:dc="http://purl.org/dc/elements/1.1/"
   xmlns:cc="http://creativecommons.org/ns#"
   xmlns:rdf="http://www.w3.org/1999/02/22-rdf-syntax-ns#"
   xmlns:svg="http://www.w3.org/2000/svg"
   xmlns="http://www.w3.org/2000/svg"
   xmlns:xlink="http://www.w3.org/1999/xlink"
   xmlns:sodipodi="http://sodipodi.sourceforge.net/DTD/sodipodi-0.dtd"
   xmlns:inkscape="http://www.inkscape.org/namespaces/inkscape"
   width="262px"
   height="117px"
   viewBox="0 0 262 117"
   version="1.1"
   id="svg824"
   sodipodi:docname="logo-gradient.svg"
   inkscape:version="0.92.4 5da689c313, 2019-01-14">
  <metadata
     id="metadata828">
    <rdf:RDF>
      <cc:Work
         rdf:about="">
        <dc:format>image/svg+xml</dc:format>
        <dc:type
           rdf:resource="http://purl.org/dc/dcmitype/StillImage" />
        <dc:title>Artboard</dc:title>
      </cc:Work>
    </rdf:RDF>
  </metadata>
  <sodipodi:namedview
     pagecolor="#ffffff"
     bordercolor="#666666"
     borderopacity="1"
     objecttolerance="10"
     gridtolerance="10"
     guidetolerance="10"
     inkscape:pageopacity="0"
     inkscape:pageshadow="2"
     inkscape:window-width="1211"
     inkscape:window-height="1348"
     id="namedview826"
     showgrid="false"
     inkscape:zoom="1.7395038"
     inkscape:cx="111.88506"
     inkscape:cy="103.23889"
     inkscape:window-x="1303"
     inkscape:window-y="46"
     inkscape:window-maximized="0"
     inkscape:current-layer="svg824" />
  <!-- Generator: Sketch 51.3 (57544) - http://www.bohemiancoding.com/sketch -->
  <title
     id="title815">Artboard</title>
  <desc
     id="desc817">Created with Sketch.</desc>
  <defs
     id="defs819">
    <linearGradient
       inkscape:collect="always"
       id="linearGradient1482">
      <stop
         style="stop-color:#8bda94;stop-opacity:1"
         offset="0"
         id="stop1478" />
      <stop
         style="stop-color:#3498db;stop-opacity:1"
         offset="1"
         id="stop1480" />
    </linearGradient>
    <linearGradient
       inkscape:collect="always"
       xlink:href="#linearGradient1482"
       id="linearGradient1486"
       gradientUnits="userSpaceOnUse"
       x1="0.212"
       y1="58.48"
       x2="261.428"
       y2="58.48" />
  </defs>
  <g
     id="Artboard"
     transform="translate(0.40649913,-0.40649913)"
     style="fill:url(#linearGradient1486);fill-rule:evenodd;stroke:none;stroke-width:1;fill-opacity:1">
    <g
       id="HACK-SUSSEX-BLACK"
       style="fill:url(#linearGradient1486);fill-opacity:1">
      <path
         d="m 81.284,1.824 c 0.816004,0.8160041 1.224,1.8719935 1.224,3.168 v 41.616 c 0,1.248006 -0.431996,2.291996 -1.296,3.132 C 80.347996,50.580004 79.244007,51 77.9,51 76.699994,51 75.668004,50.580004 74.804,49.74 73.939996,48.899996 73.508,47.856006 73.508,46.608 V 29.832 H 50.54 v 16.776 c 0,1.248006 -0.455995,2.291996 -1.368,3.132 C 48.259995,50.580004 47.204006,51 46.004,51 44.707993,51 43.640004,50.580004 42.8,49.74 41.959996,48.899996 41.54,47.856006 41.54,46.608 V 4.992 c 0,-1.2480062 0.431996,-2.2919958 1.296,-3.132 0.864004,-0.8400042 1.967993,-1.26 3.312,-1.26 1.200006,0 2.231996,0.4199958 3.096,1.26 0.864004,0.8400042 1.296,1.8839938 1.296,3.132 v 16.56 H 73.508 V 4.992 c 0,-1.2480062 0.455995,-2.2919958 1.368,-3.132 0.912005,-0.8400042 1.967994,-1.26 3.168,-1.26 1.344007,0 2.423996,0.4079959 3.24,1.224 z m 51.912,45.288 c 0,1.248006 -0.408,2.267996 -1.224,3.06 -0.816,0.792004 -1.752,1.188 -2.808,1.188 -0.864,0 -1.644,-0.263997 -2.34,-0.792 -0.696,-0.528003 -1.236,-1.247995 -1.62,-2.16 L 121.46,39.696 H 100.004 L 96.26,48.48 c -0.336002,0.912005 -0.851996,1.619997 -1.548,2.124 -0.696004,0.504002 -1.451996,0.756 -2.268,0.756 -1.248006,0 -2.195997,-0.335997 -2.844,-1.008 -0.648003,-0.672003 -0.972,-1.583994 -0.972,-2.736 0,-0.432002 0.072,-0.887998 0.216,-1.368 L 106.772,3.192 c 0.384,-0.9600048 0.96,-1.7039974 1.728,-2.232 0.768,-0.52800264 1.632,-0.74400048 2.592,-0.648 0.864,0 1.668,0.25199748 2.412,0.756 0.744,0.5040025 1.284,1.2119954 1.62,2.124 l 17.712,42.192 c 0.24,0.624003 0.36,1.199997 0.36,1.728 z M 99.99762,39.695923 h 3.13306 L 106.91638,30.416 H 117.932 L 112.24189,17.232979 116.57111,6.6392212 114.92993,2.720459 110.66,13.568 103.76538,30.416 Z M 176.468,6.72 c 0,1.008005 -0.36,1.9919952 -1.08,2.952 -0.768,1.008005 -1.75199,1.512 -2.952,1.512 -0.816,0 -1.632,-0.215998 -2.448,-0.648 -2.35201,-1.1040055 -4.89599,-1.656 -7.632,-1.656 -3.36002,0 -6.28799,0.7079929 -8.784,2.124 -2.49601,1.416007 -4.41599,3.407987 -5.76,5.976 -1.34401,2.568013 -2.016,5.507983 -2.016,8.82 0,5.664028 1.52398,9.959985 4.572,12.888 3.04801,2.928015 7.04397,4.392 11.988,4.392 2.92801,0 5.47199,-0.551995 7.632,-1.656 0.864,-0.384002 1.632,-0.576 2.304,-0.576 1.24801,0 2.304,0.527995 3.168,1.584 0.72,0.912005 1.08,1.895995 1.08,2.952 0,0.768004 -0.192,1.463997 -0.576,2.088 -0.384,0.624003 -0.936,1.103998 -1.656,1.44 -3.74402,1.872009 -7.72798,2.808 -11.952,2.808 -4.70402,0 -9.02398,-0.99599 -12.96,-2.988 -3.93602,-1.99201 -7.07999,-4.931981 -9.432,-8.82 -2.35201,-3.888019 -3.528,-8.591972 -3.528,-14.112 0,-4.896024 1.11599,-9.287981 3.348,-13.176 2.23201,-3.8880194 5.31598,-6.9239891 9.252,-9.108 3.93602,-2.1840109 8.37597,-3.276 13.32,-3.276 4.27202,0 8.23198,0.9359906 11.88,2.808 1.48801,0.7680038 2.232,1.9919916 2.232,3.672 z m 46.944,38.196 c 0.192,0.552003 0.288,1.067998 0.288,1.548 0,1.296007 -0.49199,2.375996 -1.476,3.24 -0.98401,0.864004 -2.12399,1.296 -3.42,1.296 -0.624,0 -1.224,-0.143999 -1.8,-0.432 -0.576,-0.288001 -1.056,-0.695997 -1.44,-1.224 L 199.94,28.752 193.1,35.304 v 11.304 c 0,1.296007 -0.42,2.351996 -1.26,3.168 C 191,50.592004 189.90801,51 188.564,51 187.26799,51 186.2,50.580004 185.36,49.74 184.52,48.899996 184.1,47.856006 184.1,46.608 V 4.992 c 0,-1.2480062 0.432,-2.2919958 1.296,-3.132 0.864,-0.8400042 1.96799,-1.26 3.312,-1.26 1.29601,0 2.352,0.4079959 3.168,1.224 0.816,0.8160041 1.224,1.8719935 1.224,3.168 v 19.584 l 23.04,-22.68 c 1.10401,-1.10400552 2.27999,-1.656 3.528,-1.656 1.10401,0 2.04,0.45599544 2.808,1.368 0.768,0.9120046 1.152,1.871995 1.152,2.88 0,1.008005 -0.432,1.9439957 -1.296,2.808 l -15.696,14.976 16.056,21.24 c 0.288,0.384002 0.528,0.851997 0.72,1.404 z M 9.716,115.424 c -2.6880134,-0.864 -5.2079882,-2.32799 -7.56,-4.392 -1.29600648,-1.15201 -1.944,-2.42399 -1.944,-3.816 0,-1.10401 0.40799592,-2.076 1.224,-2.916 0.8160041,-0.84 1.7999942,-1.26 2.952,-1.26 0.9120046,0 1.7279964,0.288 2.448,0.864 1.9200096,1.58401 3.791991,2.736 5.616,3.456 1.824009,0.72 3.983987,1.08 6.48,1.08 2.688013,0 5.00399,-0.59999 6.948,-1.8 1.94401,-1.20001 2.916,-2.68799 2.916,-4.464 0,-2.16001 -0.95999,-3.851994 -2.88,-5.076 C 23.99599,95.875994 20.948021,94.952003 16.772,94.328 6.2599474,92.791992 1.004,87.896041 1.004,79.64 c 0,-3.024015 0.7919921,-5.651989 2.376,-7.884 1.5840079,-2.232011 3.7439863,-3.935994 6.48,-5.112 2.736014,-1.176006 5.783983,-1.764 9.144,-1.764 3.024015,0 5.867987,0.455995 8.532,1.368 2.664013,0.912005 4.883991,2.111993 6.66,3.6 1.392007,1.104005 2.088,2.375993 2.088,3.816 0,1.104005 -0.407996,2.075996 -1.224,2.916 -0.816004,0.840004 -1.775995,1.26 -2.88,1.26 -0.720004,0 -1.367997,-0.215998 -1.944,-0.648 -1.248006,-1.008005 -2.987989,-1.931996 -5.22,-2.772 -2.232011,-0.840004 -4.235991,-1.26 -6.012,-1.26 -3.024015,0 -5.363992,0.563994 -7.02,1.692 -1.656008,1.128006 -2.484,2.603991 -2.484,4.428 0,2.06401 0.851992,3.623995 2.556,4.68 1.704009,1.056005 4.379982,1.919997 8.028,2.592 4.128021,0.720004 7.427988,1.643994 9.9,2.772 2.472012,1.128006 4.331994,2.66399 5.58,4.608 1.248006,1.94401 1.872,4.523984 1.872,7.74 0,3.02402 -0.851991,5.67599 -2.556,7.956 -1.704008,2.28001 -3.971986,4.03199 -6.804,5.256 -2.832014,1.22401 -5.879984,1.836 -9.144,1.836 -3.456017,0 -6.527987,-0.432 -9.216,-1.296 z M 84.524,66.752 c 0.768004,0.816004 1.152,1.871993 1.152,3.168 v 26.064 c 0,3.98402 -0.839992,7.51199 -2.52,10.584 -1.680008,3.07202 -4.031985,5.47199 -7.056,7.2 -3.024015,1.72801 -6.479981,2.592 -10.368,2.592 -3.888019,0 -7.355985,-0.86399 -10.404,-2.592 -3.048015,-1.72801 -5.411992,-4.12798 -7.092,-7.2 -1.680008,-3.07201 -2.52,-6.59998 -2.52,-10.584 V 69.92 c 0,-1.248006 0.431996,-2.291996 1.296,-3.132 0.864004,-0.840004 1.967993,-1.26 3.312,-1.26 1.152006,0 2.159996,0.419996 3.024,1.26 0.864004,0.840004 1.296,1.883994 1.296,3.132 v 26.064 c 0,2.304011 0.503995,4.35599 1.512,6.156 1.008005,1.80001 2.363992,3.18 4.068,4.14 1.704008,0.96 3.53999,1.44 5.508,1.44 2.06401,0 3.995991,-0.48 5.796,-1.44 1.800009,-0.96 3.239995,-2.33999 4.32,-4.14 1.080005,-1.80001 1.62,-3.851989 1.62,-6.156 V 69.92 c 0,-1.296007 0.359996,-2.351996 1.08,-3.168 0.720004,-0.816004 1.703994,-1.224 2.952,-1.224 1.248006,0 2.255996,0.407996 3.024,1.224 z m 18.216,48.672 c -2.68801,-0.864 -5.207988,-2.32799 -7.56,-4.392 -1.296006,-1.15201 -1.944,-2.42399 -1.944,-3.816 0,-1.10401 0.407996,-2.076 1.224,-2.916 0.816004,-0.84 1.799994,-1.26 2.952,-1.26 0.912005,0 1.727996,0.288 2.448,0.864 1.92001,1.58401 3.79199,2.736 5.616,3.456 1.82401,0.72 3.98399,1.08 6.48,1.08 2.68801,0 5.00399,-0.59999 6.948,-1.8 1.94401,-1.20001 2.916,-2.68799 2.916,-4.464 0,-2.16001 -0.95999,-3.851994 -2.88,-5.076 -1.92001,-1.224006 -4.96798,-2.147997 -9.144,-2.772 C 99.283947,92.791992 94.028,87.896041 94.028,79.64 c 0,-3.024015 0.791992,-5.651989 2.376,-7.884 1.584008,-2.232011 3.74399,-3.935994 6.48,-5.112 2.73601,-1.176006 5.78398,-1.764 9.144,-1.764 3.02401,0 5.86799,0.455995 8.532,1.368 2.66401,0.912005 4.88399,2.111993 6.66,3.6 1.39201,1.104005 2.088,2.375993 2.088,3.816 0,1.104005 -0.408,2.075996 -1.224,2.916 -0.816,0.840004 -1.77599,1.26 -2.88,1.26 -0.72,0 -1.368,-0.215998 -1.944,-0.648 -1.24801,-1.008005 -2.98799,-1.931996 -5.22,-2.772 -2.23201,-0.840004 -4.23599,-1.26 -6.012,-1.26 -3.02401,0 -5.36399,0.563994 -7.02,1.692 -1.65601,1.128006 -2.484,2.603991 -2.484,4.428 0,2.06401 0.85199,3.623995 2.556,4.68 1.70401,1.056005 4.37998,1.919997 8.028,2.592 4.12802,0.720004 7.42799,1.643994 9.9,2.772 2.47201,1.128006 4.33199,2.66399 5.58,4.608 1.24801,1.94401 1.872,4.523984 1.872,7.74 0,3.02402 -0.85199,5.67599 -2.556,7.956 -1.70401,2.28001 -3.97199,4.03199 -6.804,5.256 -2.83201,1.22401 -5.87998,1.836 -9.144,1.836 -3.45602,0 -6.52799,-0.432 -9.216,-1.296 z m 42.984,0 c -2.68801,-0.864 -5.20799,-2.32799 -7.56,-4.392 -1.29601,-1.15201 -1.944,-2.42399 -1.944,-3.816 0,-1.10401 0.408,-2.076 1.224,-2.916 0.816,-0.84 1.79999,-1.26 2.952,-1.26 0.912,0 1.728,0.288 2.448,0.864 1.92001,1.58401 3.79199,2.736 5.616,3.456 1.82401,0.72 3.98399,1.08 6.48,1.08 2.68801,0 5.00399,-0.59999 6.948,-1.8 1.94401,-1.20001 2.916,-2.68799 2.916,-4.464 0,-2.16001 -0.95999,-3.851994 -2.88,-5.076 -1.92001,-1.224006 -4.96798,-2.147997 -9.144,-2.772 -10.51205,-1.536008 -15.768,-6.431959 -15.768,-14.688 0,-3.024015 0.79199,-5.651989 2.376,-7.884 1.58401,-2.232011 3.74399,-3.935994 6.48,-5.112 2.73601,-1.176006 5.78398,-1.764 9.144,-1.764 3.02401,0 5.86799,0.455995 8.532,1.368 2.66401,0.912005 4.88399,2.111993 6.66,3.6 1.39201,1.104005 2.088,2.375993 2.088,3.816 0,1.104005 -0.408,2.075996 -1.224,2.916 -0.816,0.840004 -1.77599,1.26 -2.88,1.26 -0.72,0 -1.368,-0.215998 -1.944,-0.648 -1.24801,-1.008005 -2.98799,-1.931996 -5.22,-2.772 -2.23201,-0.840004 -4.23599,-1.26 -6.012,-1.26 -3.02402,0 -5.36399,0.563994 -7.02,1.692 -1.65601,1.128006 -2.484,2.603991 -2.484,4.428 0,2.06401 0.85199,3.623995 2.556,4.68 1.70401,1.056005 4.37998,1.919997 8.028,2.592 4.12802,0.720004 7.42799,1.643994 9.9,2.772 2.47201,1.128006 4.33199,2.66399 5.58,4.608 1.24801,1.94401 1.872,4.523984 1.872,7.74 0,3.02402 -0.85199,5.67599 -2.556,7.956 -1.70401,2.28001 -3.97199,4.03199 -6.804,5.256 -2.83201,1.22401 -5.87998,1.836 -9.144,1.836 -3.45602,0 -6.52799,-0.432 -9.216,-1.296 z m 67.644,-6.444 c 0.84,0.84 1.26,1.81199 1.26,2.916 0,1.20001 -0.42,2.184 -1.26,2.952 -0.84,0.768 -1.88399,1.152 -3.132,1.152 h -24.12 c -1.24801,0 -2.292,-0.42 -3.132,-1.26 -0.84,-0.84 -1.26,-1.88399 -1.26,-3.132 V 69.992 c 0,-1.248006 0.42,-2.291996 1.26,-3.132 0.84,-0.840004 1.88399,-1.26 3.132,-1.26 h 24.12 c 1.24801,0 2.292,0.395996 3.132,1.188 0.84,0.792004 1.26,1.811994 1.26,3.06 0,1.200006 -0.408,2.171996 -1.224,2.916 -0.816,0.744004 -1.87199,1.116 -3.168,1.116 h -19.512 v 12.24 h 16.272 c 1.24801,0 2.292,0.395996 3.132,1.188 0.84,0.792004 1.26,1.811994 1.26,3.06 0,1.200006 -0.408,2.171996 -1.224,2.916 -0.816,0.744004 -1.87199,1.116 -3.168,1.116 h -16.272 v 13.32 h 19.512 c 1.24801,0 2.292,0.42 3.132,1.26 z m 47.124,0.396 c 0.576,0.768 0.864,1.65599 0.864,2.664 0,1.24801 -0.45599,2.28 -1.368,3.096 -0.91201,0.816 -1.896,1.224 -2.952,1.224 -1.39201,0 -2.568,-0.62399 -3.528,-1.872 l -12.816,-17.064 -12.456,16.92 c -0.96001,1.34401 -2.15999,2.016 -3.6,2.016 -1.05601,0 -1.968,-0.384 -2.736,-1.152 -0.768,-0.768 -1.152,-1.656 -1.152,-2.664 0,-1.05601 0.36,-2.03999 1.08,-2.952 L 235.724,90.8 221.828,72.368 c -0.624,-0.768004 -0.936,-1.631995 -0.936,-2.592 0,-1.200006 0.45599,-2.231996 1.368,-3.096 0.91201,-0.864004 1.91999,-1.296 3.024,-1.296 1.39201,0 2.56799,0.623994 3.528,1.872 l 12.672,16.848 12.384,-16.488 c 0.48,-0.672003 1.032,-1.187998 1.656,-1.548 0.624,-0.360002 1.248,-0.54 1.872,-0.54 1.056,0 1.992,0.419996 2.808,1.26 0.816,0.840004 1.224,1.763995 1.224,2.772 0,0.912005 -0.312,1.775996 -0.936,2.592 l -14.04,18.504 z"
         id="HACK-SUSSEX"
         inkscape:connector-curvature="0"
         style="fill-opacity:1;fill:url(#linearGradient1486)" />
    </g>
  </g>
</svg>
